<svg width="38" height="47" viewBox="0 0 38 47" fill="none" xmlns="http://www.w3.org/2000/svg">
<path d="M8.67411 0.341518C9.77232 0.341518 10.817 0.709822 11.808 1.44643C12.7991 2.16964 13.683 3.12054 14.4598 4.29911C15.25 5.46429 15.8661 6.72991 16.308 8.09598C16.7634 9.46205 16.9911 10.7879 16.9911 12.0737C16.9911 12.8906 16.8906 13.9286 16.6897 15.1875C16.5022 16.433 16.2076 17.7656 15.8058 19.1853C15.404 20.5915 14.8817 21.9375 14.2388 23.2232H3.12946C2.48661 21.9375 1.96429 20.5915 1.5625 19.1853C1.16072 17.7656 0.859376 16.433 0.658483 15.1875C0.470983 13.9286 0.377233 12.8906 0.377233 12.0737C0.377233 10.7879 0.598215 9.46205 1.04018 8.09598C1.49554 6.72991 2.11161 5.46429 2.88839 4.29911C3.66518 3.12054 4.54911 2.16964 5.54018 1.44643C6.54464 0.709822 7.58929 0.341518 8.67411 0.341518ZM8.6942 35.0357C7.12723 35.0357 5.92857 34.3326 5.09821 32.9263C4.28125 31.5201 3.87277 29.7121 3.87277 27.5022C3.87277 27.2879 3.87946 27.0402 3.89286 26.7589C3.91964 26.4777 3.95313 26.2165 3.9933 25.9754H13.3951C13.4353 26.2165 13.4621 26.4777 13.4754 26.7589C13.5022 27.0402 13.5156 27.2879 13.5156 27.5022C13.5156 28.9754 13.3281 30.2813 12.9531 31.4196C12.5915 32.5446 12.0491 33.4286 11.3259 34.0714C10.6161 34.7143 9.73884 35.0357 8.6942 35.0357ZM33.0826 13.5402C34.1138 13.9152 34.971 14.6183 35.654 15.6496C36.3371 16.6674 36.8393 17.8594 37.1607 19.2254C37.4955 20.5915 37.6429 21.9978 37.6027 23.4442C37.5625 24.8772 37.3214 26.1897 36.8795 27.3817C36.5982 28.1719 36.1496 29.1228 35.5335 30.2344C34.9308 31.3326 34.1942 32.4777 33.3237 33.6696C32.4665 34.8482 31.5156 35.9397 30.471 36.9442L20.0246 33.1473C19.8772 31.7143 19.8504 30.2679 19.9442 28.808C20.0513 27.3348 20.2254 25.9754 20.4665 24.7299C20.721 23.4844 20.9888 22.4799 21.2701 21.7165C21.7121 20.5112 22.375 19.346 23.2589 18.221C24.1563 17.0826 25.1674 16.0982 26.2924 15.2679C27.4308 14.4375 28.5893 13.8482 29.7679 13.5C30.9598 13.1518 32.0647 13.1652 33.0826 13.5402ZM21.2299 46.1451C19.7567 45.596 18.8728 44.5179 18.5781 42.9107C18.2969 41.317 18.5313 39.4821 19.2813 37.4063C19.3482 37.2054 19.442 36.9777 19.5625 36.7232C19.683 36.4554 19.8036 36.2143 19.9241 36L28.7634 39.2344C28.7098 39.4754 28.6429 39.7299 28.5625 39.9978C28.4955 40.279 28.4219 40.5201 28.3415 40.721C27.5915 42.7835 26.5871 44.3371 25.3281 45.3817C24.0692 46.4263 22.7031 46.6808 21.2299 46.1451Z" fill="#62A8AB"/>
</svg>
