<svg width="31" height="42" viewBox="0 0 31 42" fill="none" xmlns="http://www.w3.org/2000/svg">
<path d="M13.3017 41.8017C11.375 41.8017 9.59698 41.4914 7.96767 40.8707C6.35129 40.2629 4.94828 39.3707 3.75862 38.194C2.56897 37.0302 1.6444 35.6078 0.984914 33.9267C0.325431 32.2457 -0.00431006 30.3319 -0.00431006 28.1853V10.1078C-0.00431006 9.53879 0.196121 9.05388 0.596983 8.65302C1.01078 8.23923 1.50862 8.03233 2.09052 8.03233C2.65948 8.03233 3.1444 8.23923 3.54526 8.65302C3.95905 9.05388 4.16595 9.53879 4.16595 10.1078V21.6293C4.42457 21.4612 4.69612 21.2931 4.9806 21.125C5.27802 20.9569 5.58836 20.7953 5.91164 20.6401V4.07543C5.91164 3.50647 6.11207 3.02155 6.51293 2.62069C6.92672 2.2069 7.4181 2 7.98707 2C8.55603 2 9.04095 2.2069 9.44181 2.62069C9.8556 3.02155 10.0625 3.50647 10.0625 4.07543V19.3211C10.3599 19.2694 10.6638 19.2241 10.9741 19.1853C11.2845 19.1466 11.5884 19.1142 11.8858 19.0884V2.42673C11.8858 1.84483 12.0862 1.35345 12.4871 0.952588C12.9009 0.538795 13.3987 0.331898 13.9806 0.331898C14.5496 0.331898 15.0345 0.538795 15.4353 0.952588C15.8491 1.35345 16.056 1.84483 16.056 2.42673V19.3017C16.3664 19.3534 16.6638 19.4181 16.9483 19.4957C17.2328 19.5733 17.5108 19.6638 17.7823 19.7672V5.21983C17.7823 4.65086 17.9828 4.16595 18.3836 3.76509C18.7974 3.35129 19.2888 3.1444 19.8578 3.1444C20.4267 3.1444 20.9116 3.35129 21.3125 3.76509C21.7263 4.16595 21.9332 4.65086 21.9332 5.21983V24.5C20.4203 24.6681 19.1272 25.0237 18.0539 25.5668C16.9935 26.097 16.1272 26.7435 15.4547 27.5065C14.7823 28.2565 14.278 29.0517 13.9418 29.8922C13.6185 30.7328 13.431 31.5409 13.3793 32.3168C13.3664 32.6142 13.4634 32.8728 13.6703 33.0927C13.8772 33.3125 14.1293 33.4224 14.4267 33.4224C14.7112 33.4224 14.9569 33.3319 15.1638 33.1509C15.3836 32.9569 15.5129 32.7112 15.5517 32.4138C15.6034 31.2759 15.9203 30.2996 16.5022 29.4849C17.0841 28.6703 17.8599 28.0237 18.8297 27.5453C19.7996 27.0539 20.9052 26.7435 22.1466 26.6142C22.4957 26.5754 22.7672 26.4914 22.9612 26.3621C23.1681 26.2198 23.3556 25.9547 23.5237 25.5668L26.2004 19.9612C26.653 19.0431 27.0862 18.3772 27.5 17.9634C27.9267 17.5496 28.444 17.3427 29.0517 17.3427C29.6078 17.3427 30.0539 17.5043 30.3901 17.8276C30.7392 18.1509 30.9138 18.5711 30.9138 19.0884C30.9138 19.3987 30.8427 19.8125 30.7004 20.3297C30.5711 20.847 30.4095 21.4095 30.2155 22.0172C30.0345 22.6121 29.8599 23.181 29.6918 23.7241C29.3815 24.7198 29.0776 25.6832 28.7802 26.6142C28.4828 27.5453 28.1789 28.444 27.8685 29.3103C27.5582 30.1638 27.2349 30.9849 26.8987 31.7737C26.5625 32.5625 26.2069 33.319 25.8319 34.0431C24.5647 36.6293 22.9289 38.569 20.9246 39.8621C18.9203 41.1552 16.3793 41.8017 13.3017 41.8017Z" fill="#62A8AB"/>
</svg>
