<svg width="18" height="18" viewBox="0 0 18 18" fill="none" xmlns="http://www.w3.org/2000/svg">
<path d="M2.44727 17.7285C1.92643 17.7285 1.51628 17.6113 1.2168 17.377C0.923828 17.1491 0.777344 16.8333 0.777344 16.4297C0.777344 15.7982 0.966146 15.1374 1.34375 14.4473C1.72135 13.7507 2.26823 13.0996 2.98438 12.4941C3.70052 11.8822 4.56315 11.3874 5.57227 11.0098C6.58789 10.6257 7.72721 10.4336 8.99023 10.4336C10.2598 10.4336 11.3991 10.6257 12.4082 11.0098C13.4238 11.3874 14.2865 11.8822 14.9961 12.4941C15.7122 13.0996 16.2591 13.7507 16.6367 14.4473C17.0208 15.1374 17.2129 15.7982 17.2129 16.4297C17.2129 16.8333 17.0632 17.1491 16.7637 17.377C16.4707 17.6113 16.0638 17.7285 15.543 17.7285H2.44727ZM9 8.68555C8.30339 8.68555 7.65885 8.49674 7.06641 8.11914C6.47396 7.73503 5.99544 7.2207 5.63086 6.57617C5.27279 5.92513 5.09375 5.19596 5.09375 4.38867C5.09375 3.5944 5.27279 2.87826 5.63086 2.24023C5.99544 1.60221 6.47396 1.09766 7.06641 0.726562C7.65885 0.355469 8.30339 0.169922 9 0.169922C9.69661 0.169922 10.3411 0.352214 10.9336 0.716797C11.526 1.08138 12.0013 1.58268 12.3594 2.2207C12.724 2.85221 12.9062 3.56836 12.9062 4.36914C12.9062 5.18294 12.724 5.91536 12.3594 6.56641C12.0013 7.21745 11.526 7.73503 10.9336 8.11914C10.3411 8.49674 9.69661 8.68555 9 8.68555Z" fill="#49416D"/>
</svg>
